# xmcd
#
# Track frame offsets:
#	150
#	14790
#	29355
#	44537
#	59476
#	72689
#	90410
#	106388
#	123580
#	137628
#	151435
#	165841
#
# Disc length: 2416 seconds
#
# Revision: 0
# Processed by: cddbd v1.5.1PL0 Copyright (c) Steve Scherf et al.
# Submitted via: dBpowerAMP V4.0
#
DISCID=a7096e0c
DTITLE=Various Artist - Nashville Nights 
DYEAR=2004
DGENRE=Country
TTITLE0=I Can't Take It No More - Donna Frost
TTITLE1=Lazy Days - Donna Frost
TTITLE2=Breakin' My Heart - Donna Frost
TTITLE3=Infatuation - Ronnie Nelms
TTITLE4=Hotter Nights - Karen Davis
TTITLE5=Two Hearts To Remember - Donna Frost
TTITLE6=Stop And Think It Over - Donna Frost
TTITLE7=BonFire - Gina Paoni
TTITLE8=Between the Lies  - Donna Frost
TTITLE9=Love Always and Always - Karen Davis
TTITLE10=My Cheatin' Lover - Ronnie Nelms
TTITLE11=To Break My Broken Heart - Ronnie Nelms
EXTD=
EXTT0=
EXTT1=
EXTT2=
EXTT3=
EXTT4=
EXTT5=
EXTT6=
EXTT7=
EXTT8=
EXTT9=
EXTT10=
EXTT11=
PLAYORDER=
